<svg width="27" height="24" fill="none" xmlns="http://www.w3.org/2000/svg"><path d="M20.571 2l3.572 3.571-3.572 3.572m0 5.714l3.572 3.572L20.57 22" stroke="#000" stroke-width="3"/><path d="M.571 6.107c5.033 0 10.065 2.41 11.575 6.16 1.51 3.751 5.536 6.161 10.568 6.162" stroke="#000" stroke-width="4"/><path fill-rule="evenodd" clip-rule="evenodd" d="M22.714 7.571c-2.884 0-5.227.889-6.823 2.286A6.936 6.936 0 0 1 14 7.235a8.83 8.83 0 0 0-.336-.735c2.38-1.893 5.575-2.929 9.05-2.929v4zm-9.05 5.644a11.012 11.012 0 0 1-2.842-3.358c-.197.362-.375.738-.531 1.128-.035.085-.071.17-.111.253 1.149.796 2.165 1.766 2.934 2.905.201-.298.385-.607.55-.928zm-3.484 3.833c-.51-1.072-1.489-2.086-2.877-2.905-.174.102-.354.202-.54.298-1.779.918-3.978 1.452-6.192 1.452v4c2.82 0 5.652-.672 8.026-1.897a14.273 14.273 0 0 0 1.583-.948z" fill="#000"/></svg>